<?xml version="1.0" encoding="utf-8" ?>
<svg baseProfile="tiny" height="172" version="1.2" width="172" xmlns="http://www.w3.org/2000/svg" xmlns:ev="http://www.w3.org/2001/xml-events" xmlns:xlink="http://www.w3.org/1999/xlink"><defs /><polygon fill="white" points="75,171" /><polygon fill="white" points="62,171 64,171" /><polygon fill="white" points="113,170 112,171 113,171" /><polygon fill="white" points="91,168 92,168" /><polygon fill="white" points="54,168 55,169 57,169 55,169" /><polygon fill="white" points="125,167 124,167 122,169 123,171 125,171 125,169 124,168" /><polygon fill="white" points="40,167" /><polygon fill="white" points="133,166" /><polygon fill="white" points="107,166 106,166 104,168 104,169 107,169" /><polygon fill="white" points="107,164" /><polygon fill="white" points="129,163" /><polygon fill="white" points="128,161" /><polygon fill="white" points="93,161 93,165" /><polygon fill="white" points="37,161" /><polygon fill="white" points="36,159" /><polygon fill="white" points="94,158 94,159" /><polygon fill="white" points="91,158 91,159" /><polygon fill="white" points="32,158" /><polygon fill="white" points="22,158 22,159 25,159 25,158 24,159" /><polygon fill="white" points="34,157 35,157" /><polygon fill="white" points="138,156 138,157 140,159 140,156" /><polygon fill="white" points="77,156 77,157" /><polygon fill="white" points="143,154 142,154 142,155" /><polygon fill="white" points="92,154" /><polygon fill="white" points="82,154 82,155" /><polygon fill="white" points="105,153" /><polygon fill="white" points="87,153 84,154 86,154" /><polygon fill="white" points="83,152 84,152" /><polygon fill="white" points="65,152" /><polygon fill="white" points="61,152" /><polygon fill="white" points="97,151 95,155 97,153" /><polygon fill="white" points="69,150 67,153 68,152 70,155 72,151 70,151" /><polygon fill="white" points="144,150 145,152 149,149 150,149 145,149" /><polygon fill="white" points="62,148 62,149" /><polygon fill="white" points="119,146" /><polygon fill="white" points="53,146" /><polygon fill="white" points="119,144" /><polygon fill="white" points="66,144 67,148 67,144" /><polygon fill="white" points="50,144" /><polygon fill="white" points="39,152 40,155 38,157 39,158 38,159 39,158 41,161 40,162 41,163 40,165 41,164 40,162 41,161 42,161 43,163 44,162 45,163 45,164 42,166 43,167 52,167 52,166 55,164 57,167 61,169 64,169 66,168 67,169 66,171 72,171 73,169 76,167 78,171 81,171 83,167 83,164 82,163 84,159 85,160 85,171 89,171 89,159 85,156 84,156 86,157 85,159 82,158 80,156 81,157 78,163 77,162 77,160 78,159 77,160 74,157 75,155 74,156 72,155 72,157 70,158 65,154 60,154 58,156 57,155 57,153 58,152 57,152 57,155 56,156 57,155 58,157 54,159 53,157 54,156 55,151 53,150 50,153 49,151 52,148 49,151 48,151 47,149 49,147 48,148 46,144 45,146 44,144 43,144 45,146 45,147 43,149 42,148 43,149 41,151 40,150 41,151" /><polygon fill="white" points="78,143 78,146 79,147 79,143" /><polygon fill="white" points="157,142 157,143" /><polygon fill="white" points="128,141 128,142 129,142" /><polygon fill="white" points="45,140 45,141" /><polygon fill="white" points="42,139 42,140" /><polygon fill="white" points="95,139 94,138 92,138 91,139 88,139 86,140 95,140" /><polygon fill="white" points="47,138 47,139" /><polygon fill="white" points="43,137 44,137" /><polygon fill="white" points="46,136" /><polygon fill="white" points="134,136 132,135 130,138 134,138" /><polygon fill="white" points="40,136 39,135 38,136 39,135" /><polygon fill="white" points="94,134 95,134" /><polygon fill="white" points="48,134 49,135" /><polygon fill="white" points="34,132" /><polygon fill="white" points="93,130 95,130" /><polygon fill="white" points="164,127" /><polygon fill="white" points="123,127" /><polygon fill="white" points="128,126" /><polygon fill="white" points="119,126" /><polygon fill="white" points="142,127 140,125 140,127 136,129 139,129 140,128 142,128" /><polygon fill="white" points="126,125 125,126 126,127" /><polygon fill="white" points="31,122 29,122 29,125 31,124" /><polygon fill="white" points="167,121" /><polygon fill="white" points="144,121" /><polygon fill="white" points="2,119 1,120 0,119 0,123" /><polygon fill="white" points="23,115" /><polygon fill="white" points="143,114 144,113 145,115 147,114 146,115 144,113" /><polygon fill="white" points="21,113" /><polygon fill="white" points="23,111" /><polygon fill="white" points="42,110" /><polygon fill="white" points="1,109 0,110 0,112 2,112 2,110" /><polygon fill="white" points="19,108" /><polygon fill="white" points="4,111 5,112 5,115 4,116 3,115 4,116 4,118 6,119 5,120 9,122 8,123 6,123 6,126 7,126 9,122 11,124 10,125 10,127 11,128 10,129 8,128 7,129 9,132 9,134 10,135 9,134 9,130 11,129 12,130 11,131 12,133 17,136 16,139 17,137 18,138 18,140 16,142 16,146 17,145 16,143 18,142 17,141 19,139 24,143 22,144 20,142 22,144 22,145 26,148 24,150 20,148 20,150 21,151 24,151 24,150 26,148 27,148 28,149 27,151 28,149 31,153 29,155 28,155 29,156 31,156 33,154 37,155 37,151 38,150 37,148 39,146 40,147 39,145 42,142 38,141 37,140 39,138 40,139 39,138 37,139 36,137 36,138 34,140 33,139 34,137 31,131 29,131 28,130 29,129 28,127 24,127 23,126 25,124 24,122 22,121 23,120 25,120 26,122 25,120 26,118 23,118 22,117 22,118 20,119 19,118 20,116 18,110 14,107 12,108 9,108 7,110" /><polygon fill="white" points="171,106 171,107" /><polygon fill="white" points="8,106" /><polygon fill="white" points="19,105" /><polygon fill="white" points="22,104" /><polygon fill="white" points="11,105 15,105 16,104 13,104" /><polygon fill="white" points="2,104 0,104 0,107 0,106" /><polygon fill="white" points="150,96 151,96 152,98 154,97 155,98 155,100 155,98 153,96" /><polygon fill="white" points="134,95" /><polygon fill="white" points="147,94 147,95" /><polygon fill="white" points="171,92 171,93" /><polygon fill="white" points="139,92 139,94" /><polygon fill="white" points="133,90" /><polygon fill="white" points="40,89 40,95 41,95" /><polygon fill="white" points="154,88 154,90 153,91 155,93 155,92 157,91 155,89 155,88" /><polygon fill="white" points="0,88 0,93 1,94 5,93 6,94 5,95 7,95 8,96 6,98 2,97 4,98 3,99 1,99 0,98 1,99 0,100 1,102 6,102 7,103 9,103 8,102 9,101 12,101 14,99 15,100 14,99 15,98 14,97 15,96 14,94 15,92 13,90 15,89 15,88 13,90 11,89 6,89 5,90 2,90 1,88" /><polygon fill="white" points="155,85" /><polygon fill="white" points="147,84 147,86" /><polygon fill="white" points="155,80 154,80 154,83" /><polygon fill="white" points="131,80 133,87 133,80" /><polygon fill="white" points="145,78" /><polygon fill="white" points="160,76" /><polygon fill="white" points="151,73 153,74" /><polygon fill="white" points="154,71" /><polygon fill="white" points="34,71" /><polygon fill="white" points="21,71" /><polygon fill="white" points="154,68 154,69" /><polygon fill="white" points="152,67" /><polygon fill="white" points="171,67 169,66 165,66 164,67 161,67 160,68 159,67 158,68 156,68 156,71 160,71 161,72 161,74 165,77 164,78 162,77 158,81 157,80 158,81 157,83 158,85 157,88 159,90 159,92 157,94 158,96 157,97 159,96 160,97 160,99 159,100 157,99 159,100 155,103 154,103 152,101 151,102 149,102 153,102 154,104 155,103 157,105 154,107 152,105 155,108 154,109 152,108 149,108 153,111 152,112 149,112 150,114 151,112 153,114 150,117 148,117 147,118 146,121 147,121 148,119 149,120 149,123 148,124 147,123 147,126 146,127 144,125 144,124 144,126 145,127 144,128 144,130 142,132 136,135 137,136 136,139 135,140 132,140 130,144 126,144 126,145 124,146 123,145 124,144 122,143 121,144 122,148 120,150 119,149 121,151 120,153 119,153 118,151 115,149 117,148 116,147 116,145 113,147 113,151 116,153 115,154 116,155 115,156 114,156 111,152 112,153 111,154 109,153 107,155 106,155 108,158 106,160 105,159 105,157 104,157 104,159 102,161 101,160 99,160 98,161 96,160 98,161 96,162 96,164 97,165 96,166 97,167 96,169 98,169 97,167 98,166 100,166 101,167 103,166 103,163 104,162 102,161 104,159 105,160 107,159 109,161 111,165 110,167 111,166 112,167 117,167 117,165 116,165 114,163 115,162 118,163 119,165 122,164 122,163 124,162 126,165 125,164 125,160 126,159 129,159 131,161 131,162 133,162 134,163 133,161 134,160 135,161 134,160 135,158 134,157 136,154 136,151 137,150 138,151 142,151 142,149 144,147 146,146 148,147 147,146 148,145 150,146 149,145 150,143 151,144 150,142 151,141 153,141 153,140 152,141 151,140 151,136 150,136 149,134 150,133 153,135 153,134 155,133 156,134 155,135 157,134 158,135 157,136 159,137 159,133 158,132 159,131 159,129 158,128 162,125 167,125 169,124 169,122 168,123 166,123 164,125 160,126 159,125 160,124 158,123 159,122 164,122 165,120 164,118 165,117 167,118 166,117 167,116 166,117 164,117 163,116 165,114 167,114 167,112 168,111 167,110 169,109 168,106 171,102 171,96 168,94 167,95 163,93 167,91 168,92 171,89 171,80 170,78 169,79 168,78 166,78 164,76 166,74 168,75 167,76 168,75 169,76 171,75 170,73 171,71" /><polygon fill="white" points="161,65" /><polygon fill="white" points="154,65" /><polygon fill="white" points="148,63" /><polygon fill="white" points="127,62" /><polygon fill="white" points="24,62 24,63 25,63 25,62" /><polygon fill="white" points="167,61" /><polygon fill="white" points="0,61" /><polygon fill="white" points="166,59" /><polygon fill="white" points="0,57" /><polygon fill="white" points="23,55" /><polygon fill="white" points="171,54 169,55 168,57 167,57 169,58" /><polygon fill="white" points="127,54 127,55" /><polygon fill="white" points="0,52 0,55 1,55 2,57 1,55 1,53 2,52" /><polygon fill="white" points="147,51" /><polygon fill="white" points="34,51 33,51 33,54 33,52" /><polygon fill="white" points="126,50" /><polygon fill="white" points="5,50 5,51" /><polygon fill="white" points="2,50 3,50" /><polygon fill="white" points="159,48" /><polygon fill="white" points="33,48" /><polygon fill="white" points="139,46" /><polygon fill="white" points="125,46 125,47 127,47" /><polygon fill="white" points="49,46" /><polygon fill="white" points="39,46 37,46 38,48 37,49 39,48" /><polygon fill="white" points="134,45 134,47 135,47 135,45" /><polygon fill="white" points="31,44 30,44 27,47 29,45 31,46 30,47 31,46" /><polygon fill="white" points="140,43 141,44" /><polygon fill="white" points="56,43" /><polygon fill="white" points="5,43 4,43 4,47 3,48 5,48" /><polygon fill="white" points="126,42 126,43" /><polygon fill="white" points="58,40 59,42 62,42 63,41 63,40 60,40 59,41" /><polygon fill="white" points="131,39 131,40" /><polygon fill="white" points="9,39" /><polygon fill="white" points="124,38 124,41 125,40 127,40 127,38" /><polygon fill="white" points="96,38" /><polygon fill="white" points="81,39 83,38 81,38" /><polygon fill="white" points="37,37" /><polygon fill="white" points="119,38 118,38 116,36 111,36 107,38 102,38 101,39 98,39 97,40 87,40 86,41 83,41 82,42 79,42 78,43 73,43 72,44 66,44 65,45 62,45 61,44 60,45 57,45 56,47 54,46 51,48 43,48 41,49 37,53 36,52 35,54 36,57 34,58 33,56 33,58 32,59 31,59 29,57 29,55 28,54 28,57 31,61 33,60 34,62 35,61 35,58 36,57 37,58 37,62 35,64 35,69 35,64 36,63 38,66 37,68 38,69 38,72 40,75 40,80 41,81 42,91 43,92 43,97 44,98 44,101 43,103 45,105 45,110 46,111 45,112 47,114 47,118 48,119 48,128 50,130 49,132 51,134 52,133 53,135 54,134 57,134 58,135 57,137 63,137 63,136 59,136 58,135 59,134 63,134 64,133 67,133 69,134 67,133 68,132 79,131 80,133 76,135 78,135 81,133 85,133 81,133 80,132 81,130 85,131 87,129 95,128 96,127 104,127 108,125 110,125 111,126 112,124 121,124 122,123 127,123 129,124 131,126 131,127 133,127 133,125 134,124 135,125 134,124 135,122 134,123 132,122 130,125 127,123 129,121 134,119 133,118 135,116 134,115 134,112 135,111 134,110 134,106 133,105 134,103 132,102 133,98 131,96 131,92 130,91 130,87 129,86 129,82 128,81 129,79 127,75 128,74 127,73 127,70 126,69 126,67 127,66 125,64 125,57 124,56 125,55 123,52 124,50 122,46 123,44" /><polygon fill="white" points="39,36" /><polygon fill="white" points="96,35 99,35" /><polygon fill="white" points="13,35" /><polygon fill="white" points="115,33 116,33" /><polygon fill="white" points="107,33 108,33" /><polygon fill="white" points="158,32" /><polygon fill="white" points="13,32" /><polygon fill="white" points="131,31" /><polygon fill="white" points="121,31 119,32 119,35 121,34" /><polygon fill="white" points="108,30 108,31 110,31 112,33 111,34 113,34 111,30" /><polygon fill="white" points="123,29 124,30" /><polygon fill="white" points="63,29 62,29 61,32 63,32" /><polygon fill="white" points="47,29" /><polygon fill="white" points="45,29 44,29 44,32 45,31" /><polygon fill="white" points="150,27 151,27" /><polygon fill="white" points="20,26 20,28 22,28 21,26" /><polygon fill="white" points="151,25" /><polygon fill="white" points="147,25" /><polygon fill="white" points="112,25 113,27" /><polygon fill="white" points="53,25 52,25 51,27 53,27" /><polygon fill="white" points="104,21 105,23 109,22 106,22" /><polygon fill="white" points="65,21 66,21" /><polygon fill="white" points="108,20 109,20" /><polygon fill="white" points="16,22 22,23 26,20 25,20 24,22 22,22 21,23 19,23 17,21 17,20 16,20" /><polygon fill="white" points="142,19" /><polygon fill="white" points="104,19" /><polygon fill="white" points="138,18 139,19" /><polygon fill="white" points="141,17 142,17" /><polygon fill="white" points="131,17" /><polygon fill="white" points="61,18 60,17 59,20 57,22 56,22 61,23" /><polygon fill="white" points="24,17" /><polygon fill="white" points="138,16" /><polygon fill="white" points="20,17 22,16 20,16" /><polygon fill="white" points="101,11" /><polygon fill="white" points="132,10 133,10" /><polygon fill="white" points="130,9" /><polygon fill="white" points="33,9 34,9" /><polygon fill="white" points="164,8 160,6 152,10 153,11 152,12 152,19 154,21 153,22 154,21 157,23 164,23 166,21 167,22 166,21 167,20 166,19 167,18 167,12 164,9" /><polygon fill="white" points="123,6 124,6" /><polygon fill="white" points="104,3" /><polygon fill="white" points="55,2 56,2" /><polygon fill="white" points="113,1" /><polygon fill="white" points="111,1" /><polygon fill="white" points="126,0 126,1 127,1 127,0" /><polygon fill="white" points="116,0" /><polygon fill="white" points="108,0 109,0" /><polygon fill="white" points="102,0 103,1 105,0 104,1" /><polygon fill="white" points="55,0" /><polygon fill="white" points="0,85 1,86 5,86 6,87 7,86 11,86 13,87 14,85 15,86 14,85 15,84 13,83 15,81 13,83 11,82 13,80 13,78 14,77 15,78 13,75 15,74 13,73 15,72 16,70 14,69 15,68 14,69 12,68 9,69 8,68 11,65 13,66 14,64 16,65 18,63 18,62 8,53 9,52 10,52 12,54 14,53 15,54 14,55 15,54 18,56 16,57 17,58 18,56 20,56 21,55 20,54 22,52 23,53 22,52 24,49 24,47 27,44 27,42 29,40 30,42 32,40 35,39 35,38 33,38 31,36 32,35 34,35 35,36 34,35 35,34 38,34 39,33 38,32 42,30 40,28 41,27 44,27 44,25 46,21 48,23 50,23 51,22 52,23 51,21 52,20 54,22 54,21 57,19 57,17 59,15 61,15 62,16 71,15 70,13 70,10 71,9 73,11 72,12 73,11 74,12 73,14 74,15 75,13 76,15 77,15 79,11 80,13 83,15 86,15 87,13 89,13 90,15 91,14 94,14 96,15 94,14 97,12 99,15 102,15 103,14 105,16 104,17 106,16 110,18 113,18 114,19 112,20 112,22 113,23 114,22 115,23 113,20 114,19 113,18 115,17 120,27 122,26 123,27 125,27 126,29 128,29 129,30 130,29 132,29 133,30 134,29 137,32 136,33 136,34 138,36 137,37 138,36 140,37 140,38 138,39 137,41 138,42 140,38 142,42 145,44 143,45 142,47 144,47 145,49 144,47 145,46 144,45 146,44 147,45 147,48 150,50 150,52 148,54 146,54 145,53 145,54 147,55 150,55 151,54 153,57 152,58 149,58 148,59 151,59 153,57 154,58 154,59 152,61 153,63 159,64 161,62 162,62 160,60 160,59 161,58 163,59 163,58 165,56 164,55 166,53 166,52 165,52 164,50 162,50 161,49 158,51 156,51 154,49 152,50 150,50 149,49 154,46 155,46 157,49 156,48 158,45 159,46 161,46 161,43 159,41 160,40 156,36 157,35 156,32 155,32 156,33 154,34 155,35 153,37 151,36 150,37 147,35 149,33 150,34 151,32 151,29 148,29 147,28 148,29 146,31 145,29 146,31 145,32 143,32 142,31 143,28 145,27 143,26 145,23 143,21 137,22 135,24 132,25 130,23 131,22 134,22 136,20 136,19 133,19 131,22 130,20 131,22 129,23 128,25 129,25 130,23 131,24 131,26 129,27 128,29 125,27 123,27 121,25 121,24 122,23 124,25 125,25 126,24 126,21 125,20 126,19 128,19 129,18 128,16 131,14 132,14 133,16 134,16 132,14 134,13 133,12 132,13 127,9 125,9 124,8 122,8 122,9 120,10 121,11 120,12 118,12 117,11 118,10 117,8 118,7 116,5 117,3 115,2 117,4 116,5 112,3 108,3 106,2 108,3 106,5 107,6 106,7 106,9 103,14 101,13 99,14 97,12 98,10 99,11 98,8 99,7 100,8 101,7 100,8 99,7 100,5 97,1 99,0 104,7 103,8 104,8 104,6 99,0 88,0 87,1 86,0 84,1 83,0 80,0 79,1 77,0 79,2 78,4 73,0 68,0 65,2 65,5 64,6 65,7 65,9 64,10 61,8 62,6 59,0 58,0 58,2 61,5 62,7 61,8 60,8 58,5 56,4 55,5 51,1 51,0 49,0 49,1 50,1 52,3 52,5 54,6 53,7 54,8 53,9 53,12 54,13 51,16 49,15 51,12 49,14 48,12 51,8 51,7 50,9 49,8 47,8 44,10 43,9 41,9 43,10 41,12 39,10 41,12 40,13 38,13 37,15 35,15 34,16 36,19 36,21 35,22 32,20 33,19 32,18 28,18 28,19 29,18 32,18 33,19 32,20 28,21 26,23 26,24 24,25 25,26 25,28 23,30 20,30 17,33 16,32 16,30 16,32 17,33 14,37 16,39 16,40 14,42 13,41 13,39 13,40 11,42 9,41 10,45 9,46 8,45 9,47 7,49 8,50 7,51 8,50 9,52 5,54 4,56 6,57 2,60 5,60 6,61 5,62 3,62 1,65 0,64 0,65 2,64 4,66 6,65 8,66 6,68 3,68 2,67 0,69 1,70 0,71 0,73 1,74 0,75 0,77 1,78 0,79" /></svg>